<svg  viewBox="0 0 21 20" fill="none" xmlns="http://www.w3.org/2000/svg">
<g clip-path="url(#clip0)">
<path d="M20.237 5.88005C20.1899 4.81738 20.017 4.0868 19.7695 3.45374C19.5141 2.78176 19.1212 2.18014 18.6064 1.68002C18.1035 1.1721 17.4945 0.777435 16.8266 0.527447C16.1863 0.281274 15.4554 0.109427 14.3868 0.0625732C13.3101 0.0117516 12.9684 0 10.2377 0C7.50706 0 7.16527 0.0117516 6.09263 0.0586052C5.02397 0.105459 4.28929 0.277459 3.65282 0.523479C2.97691 0.777435 2.37191 1.16814 1.86897 1.68002C1.3582 2.18014 0.961465 2.78573 0.709918 3.44992C0.462361 4.0868 0.289547 4.81341 0.24243 5.87609C0.191322 6.9467 0.179504 7.28658 0.179504 10.002C0.179504 12.7173 0.191322 13.0572 0.238439 14.1239C0.285556 15.1865 0.458524 15.9171 0.706081 16.5502C0.961465 17.2221 1.3582 17.8238 1.86897 18.3239C2.37191 18.8318 2.9809 19.2265 3.64883 19.4765C4.28929 19.7226 5.01998 19.8945 6.08879 19.9413C7.16128 19.9883 7.50323 19.9999 10.2339 19.9999C12.9645 19.9999 13.3063 19.9883 14.379 19.9413C15.4476 19.8945 16.1823 19.7226 16.8188 19.4765C18.1704 18.9568 19.2391 17.8941 19.7617 16.5502C20.0091 15.9133 20.182 15.1865 20.2292 14.1239C20.2763 13.0572 20.2881 12.7173 20.2881 10.002C20.2881 7.28658 20.2841 6.9467 20.237 5.88005ZM18.4258 14.0457C18.3825 15.0225 18.2175 15.5499 18.08 15.9015C17.7421 16.7728 17.0467 17.4643 16.1705 17.8004C15.8169 17.9372 15.2826 18.1012 14.3042 18.1441C13.2434 18.1911 12.9252 18.2027 10.2417 18.2027C7.55817 18.2027 7.23602 18.1911 6.17904 18.1441C5.19679 18.1012 4.66638 17.9372 4.31277 17.8004C3.87674 17.6402 3.47985 17.3862 3.15771 17.0541C2.82374 16.7298 2.56836 16.3391 2.40721 15.9055C2.26969 15.5539 2.10471 15.0225 2.06158 14.0497C2.01431 12.9948 2.00265 12.6783 2.00265 10.0097C2.00265 7.34122 2.01431 7.02087 2.06158 5.96995C2.10471 4.99319 2.26969 4.46575 2.40721 4.11412C2.56836 3.68038 2.82374 3.28586 3.1617 2.96536C3.48768 2.63327 3.88058 2.37931 4.31676 2.21921C4.67037 2.08247 5.20477 1.9184 6.18303 1.87537C7.24385 1.82851 7.56216 1.81676 10.2455 1.81676C12.9331 1.81676 13.2512 1.82851 14.3082 1.87537C15.2904 1.9184 15.8209 2.08247 16.1745 2.21921C16.6105 2.37931 17.0074 2.63327 17.3295 2.96536C17.6635 3.28967 17.9189 3.68038 18.08 4.11412C18.2175 4.46575 18.3825 4.99701 18.4258 5.96995C18.4729 7.02484 18.4847 7.34122 18.4847 10.0097C18.4847 12.6783 18.4729 12.9908 18.4258 14.0457Z" fill="#AFB1B8"/>
<path d="M10.2379 4.8642C7.38557 4.8642 5.0713 7.16537 5.0713 10.0019C5.0713 12.8385 7.38557 15.1396 10.2379 15.1396C13.0904 15.1396 15.4045 12.8385 15.4045 10.0019C15.4045 7.16537 13.0904 4.8642 10.2379 4.8642ZM10.2379 13.3346C8.38746 13.3346 6.88647 11.8422 6.88647 10.0019C6.88647 8.16165 8.38746 6.66921 10.2379 6.66921C12.0885 6.66921 13.5894 8.16165 13.5894 10.0019C13.5894 11.8422 12.0885 13.3346 10.2379 13.3346Z" fill="#AFB1B8"/>
<path d="M16.8152 4.6611C16.8152 5.32346 16.2751 5.86052 15.6088 5.86052C14.9427 5.86052 14.4026 5.32346 14.4026 4.6611C14.4026 3.99858 14.9427 3.46167 15.6088 3.46167C16.2751 3.46167 16.8152 3.99858 16.8152 4.6611Z" fill="#AFB1B8"/>
</g>
<defs>
<clipPath id="clip0">
<rect width="20.1125" height="20" fill="white" transform="translate(0.144379)"/>
</clipPath>
</defs>
</svg>
