<svg width="21" height="20" viewBox="0 0 21 20" fill="none" xmlns="http://www.w3.org/2000/svg">
<g clip-path="url(#clip0)">
<path d="M20.1631 20V19.9992H20.1681V12.6642C20.1681 9.07587 19.3913 6.31171 15.1727 6.31171C13.1447 6.31171 11.7837 7.41837 11.2281 8.46754H11.1695V6.64671H7.16959V19.9992H11.3346V13.3875C11.3346 11.6467 11.6664 9.96337 13.8344 9.96337C15.9705 9.96337 16.0023 11.95 16.0023 13.4992V20H20.1631Z" fill="#AFB1B8"/>
<path d="M0.386665 6.64746H4.55666V20H0.386665V6.64746Z" fill="#AFB1B8"/>
<path d="M2.47081 0C1.13752 0 0.0556335 1.07583 0.0556335 2.40167C0.0556335 3.7275 1.13752 4.82583 2.47081 4.82583C3.8041 4.82583 4.88599 3.7275 4.88599 2.40167C4.88515 1.07583 3.80326 0 2.47081 0V0Z" fill="#AFB1B8"/>
</g>
<defs>
<clipPath id="clip0">
<rect width="20.1125" height="20" fill="white" transform="translate(0.0556335)"/>
</clipPath>
</defs>
</svg>
