<svg width="21" height="20" viewBox="0 0 21 20" fill="none" xmlns="http://www.w3.org/2000/svg">
<g clip-path="url(#clip0)">
<path d="M20.8731 3.79875C20.1252 4.125 19.3282 4.34125 18.4973 4.44625C19.3521 3.93875 20.0045 3.14125 20.3112 2.18C19.5143 2.6525 18.6343 2.98625 17.6966 3.1725C16.9399 2.37125 15.8613 1.875 14.6848 1.875C12.402 1.875 10.5642 3.7175 10.5642 5.97625C10.5642 6.30125 10.5919 6.61375 10.6597 6.91125C7.23182 6.745 4.1986 5.11125 2.16095 2.6225C1.80521 3.23625 1.59655 3.93875 1.59655 4.695C1.59655 6.115 2.33191 7.37375 3.42804 8.1025C2.76558 8.09 2.1157 7.89875 1.56512 7.5975C1.56512 7.61 1.56512 7.62625 1.56512 7.6425C1.56512 9.635 2.99436 11.29 4.8686 11.6712C4.53297 11.7625 4.16717 11.8062 3.78755 11.8062C3.52357 11.8062 3.25708 11.7913 3.00693 11.7362C3.54117 13.36 5.05715 14.5538 6.85974 14.5925C5.45689 15.6838 3.67568 16.3412 1.74739 16.3412C1.40925 16.3412 1.08493 16.3263 0.76062 16.285C2.58709 17.4563 4.75169 18.125 7.086 18.125C14.6734 18.125 18.8216 11.875 18.8216 6.4575C18.8216 6.27625 18.8154 6.10125 18.8066 5.9275C19.6249 5.35 20.3125 4.62875 20.8731 3.79875Z" fill="#AFB1B8"/>
</g>
<defs>
<clipPath id="clip0">
<rect width="20.1125" height="20" fill="white" transform="translate(0.76062)"/>
</clipPath>
</defs>
</svg>
